<svg xmlns="http://www.w3.org/2000/svg" fill="none" viewBox="0 0 608 66"><path fill="#292924" d="M247.013 49.888h12.719c.154 3.204 2.158 4.925 4.626 4.925 2.312 0 3.778-1.41 3.778-3.205 0-2.659-1.697-3.441-8.481-5.08-6.553-1.566-12.411-5.942-12.411-14.388 0-8.445 6.629-14.543 16.496-14.543 9.866 0 15.959 5.786 16.65 15.092h-12.412c-.23-2.97-2.004-4.536-4.161-4.536-2.388 0-3.702 1.487-3.702 3.205 0 2.581 1.621 3.36 8.405 5.159 7.014 1.877 12.411 6.49 12.411 14.075 0 9.306-6.783 14.855-16.65 14.855-9.866 0-16.574-5.709-17.268-15.56ZM159.563 37.41v27.098H145.63V37.566c0-4.436-2.037-7.088-5.445-7.088-3.407 0-5.603 2.586-5.603 7.088v26.942h-13.933V37.566c0-4.436-2.037-7.088-5.445-7.088-3.409 0-5.599 2.586-5.599 7.088v26.942H95.668V37.411c0-12.407 7.303-19.814 19.536-19.814 4.919 0 9.121 1.662 12.489 4.933 3.371-3.271 7.573-4.933 12.492-4.933 12.133 0 19.378 7.407 19.378 19.814ZM395.439 37.41v27.098h-13.933V37.566c0-4.436-2.037-7.088-5.445-7.088-3.409 0-5.602 2.586-5.602 7.088v26.942h-13.933V37.566c0-4.436-2.038-7.088-5.446-7.088-3.409 0-5.599 2.586-5.599 7.088v26.942h-13.937V37.411c0-12.407 7.303-19.814 19.536-19.814 4.919 0 9.121 1.662 12.488 4.933 3.373-3.271 7.575-4.933 12.493-4.933 12.134 0 19.378 7.407 19.378 19.814ZM230.772 24.166v-5.634h-12.645v45.976h13.26V45.667c0-13.111 6.896-14.417 11.966-14.458V17.994c-5.91.152-9.896 2.467-12.581 6.172ZM325.956 35.033v29.475h-13.567V37.455c0-4.458-2.392-7.036-6.323-7.036-4.008 0-6.631 2.582-6.631 7.036v27.053h-13.567V6.744h13.567v14.058c2.393-2.11 5.552-3.205 9.253-3.205 9.79 0 17.268 6.647 17.268 17.436ZM454.232 64.508V6.744H467.8v57.764h-13.568ZM474.376 64.508V6.744h13.567v57.764h-13.567ZM492.697 41.52c0-13.76 10.332-23.926 23.899-23.926s23.898 10.166 23.898 23.926c0 13.916-10.331 23.927-23.898 23.927s-23.899-10.085-23.899-23.927Zm34.383 0c0-6.802-4.549-11.338-10.484-11.338-6.013 0-10.562 4.692-10.562 11.338 0 6.569 4.549 11.183 10.562 11.183 6.013 0 10.484-4.614 10.484-11.183ZM199.117 18.532v3.286c-3.236-2.893-7.248-4.224-12.028-4.224-12.952 0-22.896 10.166-22.896 23.926 0 13.76 9.944 23.93 22.896 23.93 5.245 0 9.099-1.565 12.028-4.224v3.282l12.8.004v-45.98h-12.8ZM188.523 52.68c-6.166 0-10.927-4.747-10.927-11.397s4.761-11.398 10.927-11.398c6.166 0 11.003 4.748 11.003 11.398 0 6.65-4.761 11.398-11.003 11.398ZM434.858 18.532v3.286c-3.236-2.893-7.248-4.224-12.028-4.224-12.953 0-22.896 10.166-22.896 23.926 0 13.76 9.943 23.93 22.896 23.93 5.245 0 9.099-1.565 12.028-4.224v3.282h12.8V18.532h-12.8ZM424.264 52.68c-6.166 0-10.928-4.747-10.928-11.397s4.762-11.398 10.928-11.398c6.166 0 11.003 4.748 11.003 11.398 0 6.65-4.761 11.398-11.003 11.398ZM607.838 18.532l-8.463 35.576c-1.697 7.036-4.702 11.339-10.715 11.339-6.088 0-8.941-4.303-10.561-11.494l-4.008-17.907-3.778 17.907c-1.543 7.191-4.473 11.494-10.561 11.494-6.013 0-8.942-4.303-10.638-11.339l-8.477-35.576h13.491l6.549 32.843 5.321-25.254c.849-4.143 3.471-7.819 8.481-7.819s7.785 3.754 8.633 7.819l5.165 25.566 6.611-33.155h12.95Z"/><path fill="#FF88C8" d="M81.643 30.162c-.42-12.998-10.886-23.42-23.968-23.42a23.953 23.953 0 0 0-11.541 2.943C41.383 3.78 34.096 0 25.925 0 11.607 0 .518 11.014.085 25.272.071 25.698 0 27.155 0 27.444L0 64.508h81.732V32.311s-.068-1.488-.09-2.15Z"/><path fill="#F8F2EA" d="M43.285 30.794c0 5.42-4.501 9.787-9.969 9.573-4.93-.191-9.009-4.275-9.193-9.208-.209-5.454 4.165-9.949 9.58-9.949 5.416 0 9.582 4.286 9.582 9.578"/><path fill="#292924" d="M43.285 30.792a5.293 5.293 0 0 1-5.295 5.294c-2.922 0-5.295-2.435-5.295-5.294 0-2.858 2.373-5.293 5.295-5.293a5.296 5.296 0 0 1 5.295 5.293Z"/><path fill="#F8F2EA" d="M67.255 30.794c0 5.42-4.501 9.787-9.969 9.573-4.93-.191-9.008-4.275-9.193-9.208-.209-5.454 4.165-9.949 9.58-9.949 5.416 0 9.582 4.286 9.582 9.578"/><path fill="#292924" d="M67.255 30.792a5.293 5.293 0 0 1-5.295 5.294c-2.922 0-5.294-2.435-5.294-5.294 0-2.858 2.372-5.293 5.294-5.293a5.296 5.296 0 0 1 5.295 5.293Z"/></svg>